#!OML:ASF F:\VICON\USERDATA\INSTALL\rory3\rory3.ASF
:FULLY-SPECIFIED
:DEGREES
87
root 0.20946516912633853 17.540168532890938 48.66954873075377 -2.884081514871499 -7.865730681897832 -3.303821504317056
lfemur -23.76103127227524 -4.642013553396685 -12.80892054572363
ltibia 23.01544593156641
lfoot -7.415510231957459 5.642471128782693
ltoes -3.884454454486765
rfemur -10.193017217366236 2.324880043466817 30.569742870978395
rtibia 36.426284230416094
rfoot -18.488747299709505 -7.380547241656527
rtoes -5.10162663066057
lowerback 11.109912968900009 1.052534057610641 3.134806783684369
upperback 0.21464212419975295 1.9926848562064636 1.5910918676338015
thorax -4.881458370448849 0.9042932476802897 -1.1270788465982453
lowerneck -16.05454779550755 -2.770331929114487 -3.126670581605733
upperneck 22.366552629286183 -3.2961164123152913 1.1532742476653508
head 9.643941339905602 -1.6627025187325009 0.8480789257090054
lclavicle 1.4772650493162928e-16 2.3756629603557046e-16
lhumerus -36.34760290331316 11.60971421221437 78.9290109898377
lradius 18.134442585412
lwrist 3.5371902119969505
lhand -28.55113955980763 19.664006007867982
lfingers 7.12502
lthumb -2.1397327093426375 49.19655857700052
rclavicle 1.4803421147723493e-16 2.378162959180817e-16
rhumerus -23.905842773213763 -15.04451851419352 -80.56027274857806
rradius 25.455114802276583
rwrist 6.101726841398808
rhand -18.533744222994045 23.336022205346882
rfingers 7.12502
rthumb 7.597206416714071 -6.750864562818604
88
root 0.21666047590553514 17.545189153597345 48.53784057910228 -3.245567019679515 -7.69072855036249 -3.0764881446261816
lfemur -23.249356127575258 -3.8680688873538203 -13.92751027880866
ltibia 19.531600278043303
lfoot -8.537969140587316 4.868669374015479
ltoes -3.044792875417178
rfemur -10.216491418513717 1.8848249103861126 30.255983223713493
rtibia 36.97538998112752
rfoot -15.03050047904746 -5.673720216002396
rtoes -6.335588993413094
lowerback 11.128711635526809 1.0602103287379099 3.0316236018185188
upperback 0.14333774516453163 1.98617773533078 1.518370870536511
thorax -4.935970746062323 0.9025744497343609 -1.1373672966516184
lowerneck -16.02211133121234 -2.783315458951842 -3.1044774178154233
upperneck 22.35775906001186 -3.329650706451364 1.2077194361347467
head 9.630210704882277 -1.6771060983790325 0.872370044695023
lclavicle 1.482221442316777e-16 2.379484158901266e-16
lhumerus -36.31764108027851 12.458262383763095 78.36971886915403
lradius 16.49748599733661
lwrist 2.674415909161527
lhand -28.02436335553598 20.23774857755573
lfingers 7.12502
lthumb -1.719011040750135 49.76209226243356
rclavicle 1.4873930641132036e-16 2.383583882169758e-16
rhumerus -24.48081715462837 -15.927149406981536 -80.34183532111263
rradius 24.766348789518293
rwrist 6.893411158244324
rhand -18.513803842814465 23.293973207053757
rfingers 7.12502
rthumb 7.599299823623121 -6.8886385868733235
89
root 0.23010337038706313 17.602285801856173 48.50152794363751 -3.619923046849425 -7.446377816655204 -2.4942077545475687
lfemur -21.755681743265477 -2.851500461632482 -15.610111018846322
ltibia 18.456576868748208
lfoot -8.608911028953468 2.601875268296573
ltoes -2.7700658581913227
rfemur -10.707548949423279 1.3421715547126905 29.38486608478437
rtibia 37.372414532642935
rfoot -8.530566681373237 -3.129418105449116
rtoes -5.920319434357744
lowerback 11.150413525087071 1.0528589838744122 2.608534754173271
upperback 0.07796113397640293 1.9254753409934842 1.4479371516504023
thorax -4.996773246821306 0.8950716437051593 -1.001324710709356
lowerneck -16.011907466478224 -2.7805329679023987 -3.0714382977860692
upperneck 22.404733783356473 -3.3201738447871163 1.182917425489061
head 9.63862568783498 -1.6762970895045808 0.8681767188534361
lclavicle 1.4705713916550974e-16 2.3705372854382247e-16
lhumerus -36.0296767404831 12.559565278381136 78.20079962693507
lradius 15.833122708611533
lwrist 2.160300654949747
lhand -27.591470743177652 20.772686069274354
lfingers 7.12502
lthumb -1.2771066014969876 50.516309292239534
rclavicle 1.4896928482194296e-16 2.3853518351285407e-16
rhumerus -25.126931977422952 -16.781432659430365 -80.06931959962594
rradius 24.00014979819152
rwrist 8.082737470207887
rhand -18.399464872955644 23.264374655616127
rfingers 7.12502
rthumb 7.766336871482439 -6.887356811639754
90
root 0.22874723073602884 17.627317460185534 48.75014660840692 -4.056538135257335 -7.102050595329047 -1.9313728342447196
lfemur -19.495460230808867 -2.2877479943865646 -17.250711492012545
ltibia 18.74708756187625
lfoot -9.588013382915966 1.257192387244566
ltoes -1.8783683852870892
rfemur -11.518253005225986 0.656855375335307 28.453748927595946
rtibia 38.085209514670325
rfoot -0.6256341496571114 -1.2772898494615221
rtoes -1.0850667456792578
lowerback 11.377554910229648 0.9517349362457108 2.22368570334853
upperback 0.07789669983820052 1.7403476608368962 1.381847101859213
thorax -5.144718342119445 0.8010349871074931 -0.7439578474168405
lowerneck -15.98018367865971 -2.778980140522002 -3.084034760541667
upperneck 22.320289945150837 -3.313207482683604 1.205217689519022
head 9.606047433930915 -1.6706936937199022 0.8877867166383708
lclavicle 1.4752866268478919e-16 2.3741642977980173e-16
lhumerus -35.592543707368065 12.230718458506063 78.16103101850668
lradius 15.391129154942828
lwrist 1.974272544922845
lhand -27.03954277766717 21.194073057256638
lfingers 7.12502
lthumb -0.779729409915394 51.04591178726858
rclavicle 1.4814242045244997e-16 2.378994201638446e-16
rhumerus -25.70073641854064 -17.71698435452615 -79.72706293348746
rradius 22.942109270458552
rwrist 9.61838963657694
rhand -18.23805419274519 23.222186640086885
rfingers 7.12502
rthumb 7.993963041376003 -6.900721818960675
